<svg width="30" height="25" viewBox="0 0 30 25" fill="none" xmlns="http://www.w3.org/2000/svg">
<rect x="1" y="1" width="28" height="23" fill="black" stroke="#D9D9D9" stroke-width="2"/>
<g clip-path="url(#clip0_204_7)">
<path d="M21.2901 11.4099L14.1714 18.5464C12.7901 19.9269 10.5433 19.9269 9.16275 18.5464C7.78221 17.1658 7.7815 14.9183 9.16275 13.537L16.6909 6.03932C17.5197 5.21057 18.8676 5.21057 19.6964 6.03932C20.5244 6.86807 20.5251 8.21532 19.6964 9.04407L13.6706 15.0394C13.3943 15.3156 12.9452 15.3156 12.669 15.0394C12.3927 14.7631 12.3927 14.3141 12.669 14.0378L17.6932 9.04407L16.6909 8.04248L11.6667 13.0355C10.8365 13.8657 10.8372 15.2122 11.6667 16.0417C12.4962 16.8712 13.842 16.8712 14.6715 16.0417L20.6972 10.0464C21.3893 9.35432 21.7342 8.44836 21.7342 7.54169C21.7342 5.58032 20.1433 4.00073 18.1926 4.00073C17.2859 4.00073 16.38 4.3464 15.6879 5.03844L8.16046 12.5347C7.19287 13.5037 6.70837 14.7724 6.70837 16.0417C6.70837 18.778 8.92546 21 11.6667 21C12.936 21 14.2047 20.5155 15.173 19.5479L22.2917 12.4115L21.2901 11.4099Z" fill="#D9D9D9"/>
</g>
<defs>
<clipPath id="clip0_204_7">
<rect width="17" height="17" fill="white" transform="translate(6 4)"/>
</clipPath>
</defs>
</svg>
