<svg width="20" height="20" viewBox="0 0 20 20" fill="none" xmlns="http://www.w3.org/2000/svg">
<path d="M9.99958 1.81818C14.5944 1.81818 18.3326 5.08364 18.3326 9.09727C18.3326 13.5673 14.0452 16.3345 10.0746 16.3345C8.46048 16.3345 7.25553 15.9736 6.41307 15.7491C5.57977 16.3064 5.08395 16.6918 2.85321 17.4036C3.29903 16.1555 3.45569 14.9055 3.35486 13.5264C2.65656 12.6173 1.66743 11.3445 1.66743 9.09727C1.6666 5.08364 5.40478 1.81818 9.99958 1.81818ZM9.99958 0C4.71814 0 0 3.84182 0 9.09727C0 10.9609 0.614974 12.7909 1.70576 14.2109C1.75159 15.8745 0.853298 18.2618 0.0449981 20C2.21324 19.5727 5.29561 18.6291 6.69305 17.6945C7.87467 18.0082 9.00546 18.1518 10.0754 18.1518C15.9785 18.1518 20 13.7545 20 9.09636C19.9992 3.81364 15.2485 0 9.99958 0ZM9.99958 12.7273H5.83309V11.8182H9.99958V12.7273ZM14.1661 10H5.83309V9.09091H14.1661V10ZM14.1661 7.27273H5.83309V6.36364H14.1661V7.27273Z" fill="white"/>
</svg>
