<svg width="20" height="20" viewBox="0 0 20 20" fill="none" xmlns="http://www.w3.org/2000/svg">
<path fill-rule="evenodd" clip-rule="evenodd" d="M1 20H20V0.833333H19V19.1667H1V20ZM18 0H0V18.3333H18V0ZM15 14.1667H3V15H15V14.1667ZM15 11.6667H3V12.5H15V11.6667ZM15 9.16667H3V10H15V9.16667ZM7.652 5.9475L8.6 6.1975C8.455 6.63833 8.213 6.96583 7.875 7.17917C7.537 7.39333 7.108 7.5 6.588 7.5C5.945 7.5 5.417 7.31667 5.003 6.95083C4.589 6.585 4.382 6.08417 4.382 5.44917C4.382 4.7775 4.59 4.25583 5.006 3.88417C5.422 3.5125 5.969 3.32667 6.648 3.32667C7.24 3.32667 7.721 3.4725 8.091 3.76417C8.312 3.93667 8.477 4.185 8.587 4.5075L7.619 4.7C7.562 4.49083 7.442 4.32583 7.261 4.205C7.079 4.08333 6.858 4.02333 6.598 4.02333C6.239 4.02333 5.948 4.13083 5.724 4.345C5.501 4.56 5.389 4.9075 5.389 5.38833C5.389 5.89917 5.499 6.2625 5.72 6.47833C5.94 6.695 6.226 6.80333 6.578 6.80333C6.838 6.80333 7.062 6.735 7.249 6.59667C7.436 6.45917 7.571 6.2425 7.652 5.9475V5.9475ZM10.675 7.43083L8.944 3.39583H10.004L11.23 6.3825L12.416 3.39583H13.453L11.719 7.43083H10.675V7.43083Z" fill="white"/>
</svg>
