<svg width="20" height="20" viewBox="0 0 20 20" fill="none" xmlns="http://www.w3.org/2000/svg">
<path d="M5.15604 7.26542C5.52187 6.89958 5.92771 6.59792 6.35937 6.35958C8.76521 5.03375 11.8502 5.73875 13.3969 8.08375L11.5252 9.95458C10.9885 8.73042 9.65604 8.03375 8.33021 8.33042C7.83104 8.44208 7.35687 8.69125 6.96938 9.07875L3.38271 12.6671C2.29354 13.7563 2.29354 15.5279 3.38271 16.6171C4.47187 17.7063 6.24354 17.7063 7.33271 16.6171L8.43854 15.5113C9.44437 15.9104 10.5227 16.0696 11.5877 15.9904L9.14687 18.4313C7.05438 20.5238 3.66187 20.5238 1.56937 18.4313C-0.523125 16.3388 -0.523125 12.9463 1.56937 10.8538L5.15604 7.26542ZM10.8527 1.56875L8.41187 4.00958C9.47604 3.92958 10.5552 4.08958 11.561 4.48792L12.666 3.38292C13.7552 2.29375 15.5269 2.29375 16.616 3.38292C17.7052 4.47208 17.7052 6.24375 16.616 7.33292L13.0285 10.9204C11.936 12.0129 10.1619 12.0038 9.07854 10.9204C8.82604 10.6679 8.60854 10.3538 8.47271 10.0446L6.60104 11.9154C6.79771 12.2138 7.00187 12.4713 7.26438 12.7338C7.94104 13.4104 8.80271 13.9146 9.79437 14.1538C11.0794 14.4629 12.456 14.2921 13.6385 13.6396C14.0702 13.4013 14.476 13.0996 14.8419 12.7338L18.4285 9.14625C20.5219 7.05375 20.5219 3.66125 18.4294 1.56875C16.3369 -0.522917 12.9452 -0.522917 10.8527 1.56875Z" fill="white"/>
</svg>
