<svg width="30" height="25" viewBox="0 0 30 25" fill="none" xmlns="http://www.w3.org/2000/svg">
<rect x="1" y="1" width="28" height="23" fill="black" stroke="#D9D9D9" stroke-width="2"/>
<g clip-path="url(#clip0_204_8)">
<path d="M10.8675 10.4494C11.1419 10.1751 11.4463 9.9488 11.77 9.77005C13.5744 8.77568 15.8881 9.30443 17.0481 11.0632L15.6444 12.4663C15.2419 11.5482 14.2425 11.0257 13.2481 11.2482C12.8738 11.3319 12.5181 11.5188 12.2275 11.8094L9.53752 14.5007C8.72064 15.3176 8.72064 16.6463 9.53752 17.4632C10.3544 18.2801 11.6831 18.2801 12.5 17.4632L13.3294 16.6338C14.0838 16.9332 14.8925 17.0526 15.6913 16.9932L13.8606 18.8238C12.2913 20.3932 9.74689 20.3932 8.17752 18.8238C6.60814 17.2544 6.60814 14.7101 8.17752 13.1407L10.8675 10.4494V10.4494ZM15.14 6.17693L13.3094 8.00755C14.1075 7.94755 14.9169 8.06755 15.6713 8.3663L16.5 7.53755C17.3169 6.72068 18.6456 6.72068 19.4625 7.53755C20.2794 8.35443 20.2794 9.68318 19.4625 10.5001L16.7719 13.1907C15.9525 14.0101 14.6219 14.0032 13.8094 13.1907C13.62 13.0013 13.4569 12.7657 13.355 12.5338L11.9513 13.9369C12.0988 14.1607 12.2519 14.3538 12.4488 14.5507C12.9563 15.0582 13.6025 15.4363 14.3463 15.6157C15.31 15.8476 16.3425 15.7194 17.2294 15.2301C17.5531 15.0513 17.8575 14.8251 18.1319 14.5507L20.8219 11.8601C22.3919 10.2907 22.3919 7.7463 20.8225 6.17693C19.2531 4.60818 16.7094 4.60818 15.14 6.17693V6.17693Z" fill="#D9D9D9"/>
</g>
<defs>
<clipPath id="clip0_204_8">
<rect width="15" height="15" fill="white" transform="translate(7 5)"/>
</clipPath>
</defs>
</svg>
