<svg width="20" height="20" viewBox="0 0 20 20" fill="none" xmlns="http://www.w3.org/2000/svg">
<path d="M9.3 12.125C9.3 11.4625 8.83 10.875 8.3 10.875H1C0.47 10.875 0 11.4625 0 12.125V18.75C0 19.4125 0.47 20 1 20H8.3C8.83 20 9.3 19.4125 9.3 18.75V12.125ZM20 12.125C20 11.4625 19.53 10.875 19 10.875H11.7C11.17 10.875 10.7 11.4625 10.7 12.125V18.75C10.7 19.4125 11.17 20 11.7 20H19C19.53 20 20 19.4125 20 18.75V12.125ZM12.2 12.75H18.5V18.125H12.2V12.75ZM1.5 12.75H7.8V18.125H1.5V12.75ZM20 1.25C20 0.5875 19.53 0 19 0H11.7C11.17 0 10.7 0.5875 10.7 1.25V7.875C10.7 8.5375 11.17 9.125 11.7 9.125H19C19.53 9.125 20 8.5375 20 7.875V1.25ZM9.3 1.25C9.3 0.5875 8.83 0 8.3 0H1C0.47 0 0 0.5875 0 1.25V7.875C0 8.5375 0.47 9.125 1 9.125H8.3C8.83 9.125 9.3 8.5375 9.3 7.875V1.25ZM12.2 1.875H18.5V7.25H12.2V1.875ZM1.5 1.875H7.8V7.25H1.5V1.875Z" fill="white"/>
</svg>
